<svg xmlns="http://www.w3.org/2000/svg" width="270.788" height="268.978" viewBox="0 0 270.788 268.978">
  <g id="app_logo_white" transform="translate(-53.644 -87.42)">
    <g id="smartphone-magnifying-glass-svgrepo-com" transform="translate(-58 7)">
      <rect id="Rectangle_2" data-name="Rectangle 2" width="15.968" height="32.258" transform="translate(285.202 265.163) rotate(-45)" fill="#d9d9d9"/>
      <g id="Path_10" data-name="Path 10" transform="translate(111.644 80.42)" fill="none">
        <path d="M107.96,0A107.96,107.96,0,1,1,0,107.96,107.96,107.96,0,0,1,107.96,0Z" stroke="none"/>
        <path d="M 107.9599990844727 23 C 61.11289978027344 23 23 61.11289978027344 23 107.9599990844727 C 23 154.8070983886719 61.11289978027344 192.9199981689453 107.9599990844727 192.9199981689453 C 154.8070983886719 192.9199981689453 192.9199981689453 154.8070983886719 192.9199981689453 107.9599990844727 C 192.9199981689453 61.11289978027344 154.8070983886719 23 107.9599990844727 23 M 107.9599990844727 0 C 167.5846557617188 0 215.9199981689453 48.33534240722656 215.9199981689453 107.9599990844727 C 215.9199981689453 167.5846557617188 167.5846557617188 215.9199981689453 107.9599990844727 215.9199981689453 C 48.33534240722656 215.9199981689453 0 167.5846557617188 0 107.9599990844727 C 0 48.33534240722656 48.33534240722656 0 107.9599990844727 0 Z" stroke="none" fill="#fff"/>
      </g>
      <path id="Subtraction_1" data-name="Subtraction 1" d="M27.569,254.971A87.121,87.121,0,0,1-21.37,240.022a88.012,88.012,0,0,1-23.642-23.643,87.537,87.537,0,0,1-8.07-14.868,87.82,87.82,0,0,1,0-68.142,87.539,87.539,0,0,1,8.07-14.868A88.014,88.014,0,0,1-21.37,94.857a87.415,87.415,0,0,1,97.879,0A88.014,88.014,0,0,1,100.151,118.5a87.539,87.539,0,0,1,8.07,14.868,87.82,87.82,0,0,1,0,68.142,87.54,87.54,0,0,1-8.07,14.868,88.012,88.012,0,0,1-23.643,23.643,87.123,87.123,0,0,1-48.94,14.949Zm0-165.365A77.834,77.834,0,1,0,105.4,167.44,77.922,77.922,0,0,0,27.569,89.606Z" transform="translate(192.035 20.94)" fill="#d9d9d9"/>
      <g id="Group_2" data-name="Group 2">
        <path id="Path_3" data-name="Path 3" d="M355.814,347.41a6.294,6.294,0,0,0,9.18,0l15.451-15.451a6.294,6.294,0,0,0,0-9.18l-1.81-1.81L354,345.6Z" fill="#fff"/>
        <path id="Path_4" data-name="Path 4" d="M327.24,269.64a6.292,6.292,0,0,0-9.18,0l-15.451,15.451a6.292,6.292,0,0,0,0,9.18l1.81,1.81,24.63-24.63Z" fill="#fff"/>
      </g>
      <rect id="Rectangle_3" data-name="Rectangle 3" width="69.947" height="34.586" transform="translate(354.086 345.621) rotate(-135)" fill="#fcb732"/>
    </g>
    <g id="flutter-svgrepo-com" transform="translate(81.246 199.231) rotate(-45)">
      <path id="Path_5" data-name="Path 5" d="M15.383,27.664,28.341,15.042H60.528L32.015,43.556,15.383,27.664h0" transform="translate(29.205 37.126)" fill="#fff"/>
      <path id="Path_6" data-name="Path 6" d="M4.907,55.636,21.1,72.21,90.44,2.287H58.252Z" transform="translate(0)" fill="#fff"/>
      <path id="Path_7" data-name="Path 7" d="M11.176,34.366,27.6,50.542,44.027,34.207,27.4,18.316Z" transform="translate(17.9 45.767)" fill="#e6e6e6"/>
      <path id="Path_8" data-name="Path 8" d="M15.435,38.773,31.866,22.438,59.979,50.871H27.61Z" transform="translate(30.04 57.516)" fill="#d1d1d1"/>
      <path id="Path_9" data-name="Path 9" d="M15.435,34.15l15.309-5.093-5.158-5Z" transform="translate(30.06 62.159)" fill="#c5c5c5"/>
    </g>
  </g>
</svg>
