<svg xmlns="http://www.w3.org/2000/svg" width="270.788" height="268.978" viewBox="0 0 270.788 268.978">
  <g id="app_logo_colored" transform="translate(-53.644 -87.42)">
    <g id="smartphone-magnifying-glass-svgrepo-com" transform="translate(-58 7)">
      <rect id="Rectangle_2" data-name="Rectangle 2" width="15.968" height="32.258" transform="translate(285.202 265.163) rotate(-45)" fill="#1068b1"/>
      <path id="Path_10" data-name="Path 10" d="M107.96,0A107.96,107.96,0,1,1,0,107.96,107.96,107.96,0,0,1,107.96,0Z" transform="translate(111.644 80.42)" fill="#0e5199"/>
      <circle id="Ellipse_4" data-name="Ellipse 4" cx="87.531" cy="87.531" r="87.531" transform="translate(132.073 100.849)" fill="#1068b1"/>
      <circle id="Ellipse_5" data-name="Ellipse 5" cx="77.834" cy="77.834" r="77.834" transform="translate(141.77 110.546)" fill="#f8f9fb"/>
      <g id="Group_2" data-name="Group 2">
        <path id="Path_3" data-name="Path 3" d="M355.814,347.41a6.294,6.294,0,0,0,9.18,0l15.451-15.451a6.294,6.294,0,0,0,0-9.18l-1.81-1.81L354,345.6Z" fill="#0e5199"/>
        <path id="Path_4" data-name="Path 4" d="M327.24,269.64a6.292,6.292,0,0,0-9.18,0l-15.451,15.451a6.292,6.292,0,0,0,0,9.18l1.81,1.81,24.63-24.63Z" fill="#0e5199"/>
      </g>
      <rect id="Rectangle_3" data-name="Rectangle 3" width="69.947" height="34.586" transform="translate(354.086 345.621) rotate(-135)" fill="#fcb732"/>
    </g>
    <g id="flutter-svgrepo-com" transform="translate(81.246 199.231) rotate(-45)">
      <path id="Path_5" data-name="Path 5" d="M15.383,27.664,28.341,15.042H60.528L32.015,43.556,15.383,27.664h0" transform="translate(29.912 36.419)" fill="#40d0fd"/>
      <path id="Path_6" data-name="Path 6" d="M4.907,55.636,21.1,72.21,90.44,2.287H58.252Z" transform="translate(0)" fill="#41d0fd"/>
      <path id="Path_7" data-name="Path 7" d="M11.176,34.366,27.6,50.542,44.027,34.207,27.4,18.316Z" transform="translate(17.9 45.767)" fill="#1fbcfd"/>
      <path id="Path_8" data-name="Path 8" d="M15.435,38.773,31.866,22.438,59.979,50.871H27.61Z" transform="translate(30.06 57.537)" fill="#095a9d"/>
      <path id="Path_9" data-name="Path 9" d="M15.435,34.15l15.309-5.093-5.158-5Z" transform="translate(30.06 62.159)" fill="#0e5199"/>
    </g>
  </g>
</svg>
